<svg width="42" height="53" viewBox="0 0 42 53" fill="none" xmlns="http://www.w3.org/2000/svg">
<path d="M35.897 13.2559C35.5758 10.4372 34.5395 7.88787 32.7467 5.67021C30.0938 2.3748 26.6533 0.457661 22.446 0.0742332C17.8655 -0.350646 13.8551 1.04835 10.5493 4.27121C7.52335 7.20392 6.0829 10.8413 6 15.3077C6.06218 15.9399 6.12436 16.8518 6.25907 17.7637C6.71504 20.8933 7.91714 23.7639 9.48194 26.4893C12.4354 31.5982 16.3007 35.9299 20.7464 39.7642C21.0262 40.0025 21.1609 39.8471 21.3475 39.6813C24.218 37.2253 26.8295 34.5206 29.13 31.536C31.5757 28.365 33.669 24.997 34.9436 21.1628C35.7934 18.5824 36.2079 15.9502 35.897 13.2559Z" fill="#4B96F3"/>
<path d="M21.55 3.91635C27.3555 3.94129 31.9875 8.55521 32 14.3663C32.0125 20.1898 27.2432 24.9658 21.4501 24.9159C15.6695 24.8661 11.0251 20.1898 11.0001 14.4161C10.9751 8.56768 15.657 3.90388 21.55 3.91635ZM21.4876 20.726C24.9209 20.7385 27.7925 17.8953 27.83 14.4536C27.8674 11.0243 25.0458 8.15617 21.5874 8.09382C18.0791 8.03147 15.1451 10.937 15.1701 14.4286C15.1826 17.8579 18.0542 20.7135 21.4876 20.726Z" fill="white"/>
<path d="M0 45.6131C4.31871 44.0942 8.29971 42.6938 12.2807 41.2826C13.4269 40.884 14.5936 40.5393 15.7091 40.0653C16.4561 39.753 16.9167 39.9469 17.4591 40.507C18.5848 41.6704 19.7924 42.7477 21.0819 43.9649C22.3713 42.7477 23.5789 41.5519 24.848 40.4316C25.1754 40.1408 25.769 39.8714 26.117 39.9899C31.3056 41.7674 36.4635 43.6095 41.6316 45.43C41.7032 45.4515 41.7646 45.5269 42 45.6993C41.4985 45.904 41.0994 46.0871 40.6901 46.2271C34.4883 48.4032 28.2968 50.5899 22.0848 52.7336C21.5731 52.906 20.9181 52.9922 20.4269 52.8306C13.9079 50.6007 7.38889 48.3062 0.880117 46.0225C0.695907 45.9578 0.52193 45.8501 0 45.6131Z" fill="#4B96F3"/>
</svg>
