<svg width="42" height="52" viewBox="0 0 42 52" fill="none" xmlns="http://www.w3.org/2000/svg">
<path d="M35.962 13.1542C35.6447 10.3589 34.6213 7.83084 32.8509 5.63163C30.231 2.36364 26.8333 0.462459 22.6784 0.0822214C18.155 -0.339122 14.1944 1.04823 10.9298 4.24428C7.94152 7.15258 6.51901 10.7597 6.43713 15.1889C6.49854 15.8158 6.55994 16.7202 6.69298 17.6245C7.14327 20.7281 8.33041 23.5747 9.87573 26.2775C12.7924 31.3439 16.6096 35.6395 21 39.4419C21.2763 39.6783 21.4094 39.5241 21.5936 39.3597C24.4284 36.9241 27.0073 34.2419 29.2792 31.2822C31.6944 28.1376 33.7617 24.7976 35.0205 20.9953C35.8597 18.4364 36.269 15.8261 35.962 13.1542Z" fill="#00CCBC"/>
<path d="M0 45.0119C4.31871 43.5629 8.29971 42.2269 12.2807 40.8806C13.4269 40.5004 14.5936 40.1716 15.7091 39.7194C16.4561 39.4214 16.9167 39.6063 17.4591 40.1407C18.5848 41.2506 19.7924 42.2783 21.0819 43.4395C22.3713 42.2783 23.5789 41.1376 24.848 40.0688C25.1754 39.7913 25.769 39.5344 26.117 39.6474C31.3056 41.3431 36.4635 43.1004 41.6316 44.8372C41.7032 44.8577 41.7646 44.9297 42 45.0941C41.4985 45.2893 41.0994 45.464 40.6901 45.5976C34.4883 47.6735 28.2968 49.7597 22.0848 51.8048C21.5731 51.9692 20.9181 52.0514 20.4269 51.8973C13.9079 49.77 7.38889 47.581 0.880117 45.4024C0.695907 45.3407 0.52193 45.238 0 45.0119Z" fill="#00CCBC"/>
<path d="M23.4459 17.8197H18.462C17.7865 17.8197 17.2339 17.2648 17.2339 16.5865V11.5818C17.2339 10.9035 17.7865 10.3486 18.462 10.3486H23.4459C24.1213 10.3486 24.6739 10.9035 24.6739 11.5818V16.5865C24.6739 17.2648 24.1213 17.8197 23.4459 17.8197Z" fill="white"/>
<path d="M30.5176 18.8988C32.4416 15.9802 32.4723 12.1778 30.5892 9.22842C30.3334 8.82763 29.791 8.74542 29.4226 9.04344C28.5936 9.71142 27.5702 10.5336 26.905 11.0679C26.465 11.4174 26.2194 11.9517 26.2194 12.5067V15.6205C26.2194 16.196 26.4752 16.7304 26.9255 17.0901C27.5805 17.6142 28.5629 18.4158 29.3612 19.0632C29.7194 19.3715 30.2618 19.2893 30.5176 18.8988Z" fill="white"/>
<path d="M11.462 18.8988C9.53802 15.9802 9.50732 12.1778 11.3904 9.22842C11.6462 8.82763 12.1886 8.74542 12.557 9.04344C13.386 9.71142 14.4094 10.5336 15.0746 11.0679C15.5146 11.4174 15.7602 11.9517 15.7602 12.5067V15.6205C15.7602 16.196 15.5044 16.7304 15.0541 17.0901C14.3991 17.6142 13.4167 18.4158 12.6184 19.0632C12.2602 19.3715 11.7281 19.2893 11.462 18.8988Z" fill="white"/>
<path d="M25.8202 4.54227C22.9138 2.61026 19.1272 2.57943 16.1901 4.47034C15.7909 4.72725 15.7091 5.27192 16.0059 5.64188C16.6711 6.47429 17.4898 7.50196 18.0219 8.16994C18.3699 8.61184 18.9021 8.85848 19.4547 8.85848H22.5556C23.1287 8.85848 23.6608 8.60156 24.019 8.14939C24.5409 7.49168 25.3392 6.50512 25.9839 5.70354C26.2807 5.33358 26.2091 4.79919 25.8202 4.54227Z" fill="white"/>
<path d="M16.1799 23.1739C19.0863 25.1059 22.8729 25.1367 25.81 23.2458C26.2091 22.9889 26.291 22.4442 25.9942 22.0743C25.329 21.2419 24.5103 20.2142 23.9781 19.5462C23.6302 19.1043 23.098 18.8577 22.5454 18.8577H19.4445C18.8714 18.8577 18.3392 19.1146 17.9811 19.5668C17.4591 20.2245 16.6609 21.211 16.0161 22.0126C15.7091 22.3723 15.791 22.917 16.1799 23.1739Z" fill="white"/>
<path d="M20.9898 15.9083C21.9789 15.9083 22.7807 15.1031 22.7807 14.1098C22.7807 13.1166 21.9789 12.3114 20.9898 12.3114C20.0007 12.3114 19.1989 13.1166 19.1989 14.1098C19.1989 15.1031 20.0007 15.9083 20.9898 15.9083Z" fill="#00CCBC"/>
</svg>
