<svg width="24" height="24" viewBox="0 0 24 24" fill="none" xmlns="http://www.w3.org/2000/svg">
<circle cx="12" cy="12" r="12" fill="white"/>
<g clip-path="url(#clip0)">
<path d="M7.14992 16.0912C7.17002 15.8501 7.17002 15.609 7.17002 15.3879C7.17002 12.9768 7.17002 10.5657 7.17002 8.15456V5.72334C7.27048 5.72334 7.39104 5.72334 7.4915 5.72334C7.79289 5.72334 8.07419 5.74343 8.35549 5.70325C9.1391 5.60278 9.7017 5.8238 10.1036 6.42658C10.2643 6.6677 10.5054 6.70788 10.7465 6.70788C12.2334 6.70788 13.7202 6.70788 15.2071 6.70788H16.8145V14.0417H17.4977V6.52705C17.4977 6.06492 17.4173 5.98454 16.9552 5.98454C16.4529 5.98454 15.9706 5.98454 15.4683 5.98454C14.2628 5.98454 13.017 5.96445 11.7913 6.00464C10.8671 6.04482 10.3045 5.8238 9.88253 5.24111C9.78207 5.10046 9.54096 5.02009 9.36012 5.02009C8.75734 5 8.15456 5 7.55178 5.02009L7.00927 5C6.56723 5 6.46677 5.08037 6.46677 5.5425C6.46677 6.00464 6.46677 6.48686 6.46677 6.949V7.45131C6.40649 7.45131 6.36631 7.45131 6.32612 7.45131C5.38176 7.47141 5 7.85317 5 8.79753V10.1839V15.7496C5 16.5734 5.42195 17.0155 6.24575 17.0155H9.983H11.8315V16.3323H7.12983C7.12983 16.2318 7.12983 16.1515 7.14992 16.0912ZM6.46677 15.8099C6.46677 15.8903 6.46677 15.9706 6.44668 16.051C6.3864 16.2519 6.24575 16.3323 6.06492 16.3323C5.86399 16.3122 5.74343 16.2117 5.70325 16.0108C5.68315 15.9505 5.68315 15.8702 5.68315 15.8099V8.93818C5.68315 8.57651 5.70325 8.35549 5.80371 8.25502C5.88408 8.19475 6.00464 8.15456 6.20556 8.15456C6.28594 8.15456 6.36631 8.15456 6.46677 8.17465V9.48068C6.46677 11.5703 6.46677 13.6801 6.46677 15.7697V15.8099Z" fill="black"/>
<path d="M18.201 16.6136C17.4374 15.2473 16.694 13.9413 15.9707 12.6955C15.7898 12.374 15.4885 12.1731 15.1871 12.1731C14.8656 12.1731 14.5843 12.3539 14.3834 12.6955C14.0619 13.2581 13.7404 13.8207 13.4189 14.3833L13.1979 13.8609H13.1376C12.5348 13.881 12.4143 14.2828 12.2937 14.6244C12.2736 14.6847 12.2535 14.745 12.2334 14.8053H11.7713C11.7512 14.7651 11.7311 14.7048 11.711 14.6646C11.5905 14.3431 11.4699 14.0216 11.0279 13.8408C10.5858 13.66 10.2844 13.8006 9.98304 13.9413C9.92276 13.9614 9.88258 13.9815 9.8223 14.0016C9.48072 13.7002 9.48072 13.6801 9.66156 13.3184C9.78211 13.0773 9.78211 12.7759 9.66156 12.4745C9.541 12.1731 9.31998 11.9521 9.05878 11.8516C8.65692 11.711 8.65692 11.711 8.67701 11.2689C8.7172 11.2488 8.75738 11.2488 8.77748 11.2288C8.91813 11.1886 9.05877 11.1283 9.17933 11.068C9.34007 11.0077 9.42044 10.9274 9.46063 10.847L9.52091 10.7465C9.72184 10.3648 9.92276 9.90263 9.541 9.4405C9.44054 9.31994 9.48072 9.27976 9.62137 9.13911L9.64146 9.11902C9.78211 8.97837 9.84239 8.95827 9.94286 9.03864C10.3045 9.27976 10.6461 9.29985 11.048 9.11902C11.3293 8.99846 11.5905 8.81762 11.6708 8.43586C11.6909 8.35549 11.711 8.29521 11.7512 8.21484C11.7512 8.19475 11.7713 8.17466 11.7713 8.17466C12.2133 8.13447 12.2133 8.15456 12.354 8.51623C12.4544 8.79753 12.6956 9.03864 13.017 9.1592C13.3184 9.27976 13.6198 9.25966 13.8609 9.11902C14.1623 8.95827 14.303 8.97837 14.4637 9.21948C14.4838 9.23957 14.5039 9.27976 14.524 9.29985C14.5039 9.36013 14.4838 9.40031 14.4637 9.4405C14.3231 9.74189 14.1824 10.0634 14.3633 10.5054C14.5441 10.9475 14.8857 11.0881 15.2072 11.2087C15.2674 11.2288 15.3076 11.2488 15.3679 11.2689V12.0526H15.5487C15.609 12.0526 15.6693 12.0526 15.7095 12.0526C15.7497 12.0526 15.8099 12.0526 15.8702 12.0526L16.031 12.0325L16.051 11.8516C16.051 11.7913 16.051 11.7311 16.051 11.6909C16.0711 10.8269 16.031 10.8068 15.2473 10.4652C15.167 10.425 15.0665 10.3447 15.0263 10.2241C14.9861 10.1036 14.966 9.983 15.0062 9.90263C15.3478 9.13911 15.3277 9.09892 14.745 8.51623C14.3834 8.15456 14.3231 8.13447 13.8408 8.35549H13.8208C13.7806 8.37558 13.7404 8.39568 13.7002 8.41577C13.5595 8.49614 13.4591 8.53633 13.3184 8.47605C13.1175 8.39568 13.017 8.27512 12.9568 8.09429L12.8965 7.91345C12.7357 7.43123 12.6956 7.41113 12.2334 7.41113C12.1731 7.41113 12.1129 7.41113 12.0325 7.41113C11.932 7.41113 11.8517 7.41113 11.7713 7.41113C11.3092 7.41113 11.269 7.43123 11.0881 7.91345C11.068 7.97373 11.048 8.0541 11.0078 8.13447C10.9475 8.29521 10.8671 8.39568 10.7466 8.45596C10.626 8.49614 10.4854 8.49614 10.3447 8.43586C10.3045 8.41577 10.2643 8.39568 10.2242 8.37558C10.1237 8.31531 10.0232 8.27512 9.90267 8.23494C9.78211 8.21484 9.60128 8.23493 9.46063 8.29521C9.38026 8.3354 9.29989 8.41577 9.2597 8.47605C9.23961 8.49614 9.21952 8.51623 9.19942 8.53633C9.11905 8.6167 9.05877 8.67698 8.9985 8.73725C8.65692 9.07883 8.63683 9.11902 8.83775 9.52087C8.87794 9.60124 8.91813 9.7017 8.9784 9.80217C9.03868 9.94282 9.03868 10.0835 8.9985 10.204C8.95831 10.3246 8.83775 10.405 8.7172 10.4652C8.61673 10.5054 8.53636 10.5255 8.45599 10.5456C7.99386 10.7063 7.97377 10.7465 7.97377 11.2288C7.97377 11.3091 7.97377 11.4096 7.97377 11.5101V11.5502H8.07423L7.95367 11.6306C7.95367 12.1731 7.99386 12.2133 8.51627 12.3941C8.75738 12.4745 8.91813 12.5549 9.01859 12.796C9.07887 12.9768 8.9985 13.1175 8.91813 13.2581L8.87794 13.3184C8.67701 13.66 8.7172 13.9212 9.01859 14.2025L9.05878 14.2427C9.62137 14.7852 9.68165 14.7852 10.4251 14.4637C10.5255 14.4235 10.7064 14.4436 10.8269 14.5039C10.9073 14.5441 10.9475 14.6043 10.9676 14.6445C11.0279 14.9861 11.1484 15.2071 11.3493 15.3679C11.5101 15.4683 11.6909 15.5286 11.932 15.5286C12.0325 15.5286 12.1531 15.5286 12.2535 15.5085C12.5549 15.5487 12.7558 15.4281 12.8563 15.1067C12.8764 15.0665 12.8764 15.0263 12.8965 14.9861C12.9769 14.7249 13.0371 14.5039 13.3385 14.4637H13.3988C12.997 15.1669 12.5951 15.8903 12.1932 16.6136C12.0124 16.9351 11.9923 17.2767 12.1531 17.558C12.3138 17.8393 12.6152 17.9799 12.997 17.9799C13.2782 17.9799 13.5796 17.9799 13.8609 17.9799C14.082 17.9799 14.303 17.9799 14.5441 17.9799H15.2272H15.8903C16.3926 17.9799 16.8949 17.9799 17.3973 17.9799C17.7991 17.9799 18.1206 17.8192 18.2813 17.5379C18.4019 17.2968 18.3818 16.9552 18.201 16.6136ZM17.6384 17.2164C17.5982 17.2767 17.4977 17.2968 17.3571 17.2968C16.8347 17.2968 16.3323 17.2968 15.8099 17.2968H15.167H14.524C14.0217 17.2968 13.5194 17.2968 12.997 17.2968C12.8362 17.2968 12.7357 17.2566 12.6956 17.2164C12.6554 17.1561 12.6956 17.0556 12.7759 16.915C13.5194 15.6492 14.2427 14.3833 14.9459 13.1175C15.0263 12.9567 15.1268 12.8764 15.1871 12.8764C15.2272 12.8764 15.3076 12.8964 15.4081 13.0974C16.1314 14.3632 16.8548 15.6492 17.5781 16.915C17.6585 17.0556 17.6786 17.1561 17.6384 17.2164Z" fill="black"/>
<path d="M12.0124 9.42041C11.4498 9.42041 10.9073 9.62134 10.5255 10.0232C10.1437 10.405 9.92273 10.9274 9.92273 11.49C9.92273 12.6553 10.8269 13.5595 11.9722 13.5796C11.9722 13.5796 11.9722 13.5796 11.9923 13.5796C12.5549 13.5796 13.0773 13.3586 13.4591 12.9768C13.8408 12.5951 14.0618 12.0727 14.0618 11.5101C14.0618 10.3648 13.1376 9.42041 12.0124 9.42041ZM13.3787 11.49C13.3787 12.2736 12.796 12.8764 12.0124 12.8965C11.6306 12.8965 11.2689 12.7558 11.0077 12.4946C10.7465 12.2334 10.6059 11.8918 10.6059 11.5101C10.6059 10.7465 11.2087 10.1237 11.9722 10.1237C12.7558 10.1237 13.3586 10.7063 13.3787 11.49Z" fill="black"/>
<path d="M8.13443 6.00464H7.47137V6.64761H8.13443V6.00464Z" fill="black"/>
<path d="M15.5085 13.881H14.8455V15.7697H15.5085V13.881Z" fill="black"/>
<path d="M15.5085 16.0912H14.8655V16.7542H15.5085V16.0912Z" fill="black"/>
</g>
<defs>
<clipPath id="clip0">
<rect width="13.3617" height="13" fill="white" transform="translate(5 5)"/>
</clipPath>
</defs>
</svg>
